<?xml version="1.0" encoding="utf-8"?>
<!-- Generator: Adobe Illustrator 15.1.0, SVG Export Plug-In . SVG Version: 6.00 Build 0)  -->
<!DOCTYPE svg PUBLIC "-//W3C//DTD SVG 1.0//EN" "http://www.w3.org/TR/2001/REC-SVG-20010904/DTD/svg10.dtd">
<svg version="1.0" id="Layer_1" xmlns="http://www.w3.org/2000/svg" xmlns:xlink="http://www.w3.org/1999/xlink" x="0px" y="0px"
	 width="495.7px" height="256.2px" viewBox="0 0 495.7 256.2" style="enable-background:new 0 0 495.7 256.2;" xml:space="preserve"
	>
<g>
	<path d="M66.1,2.1L47.7,96.1c-3,15.8-3.8,21-5.8,37.1c-2.2-14.9-2.9-19-7.9-45.1L17.3,2.4l-0.1-0.3H0.6l0,149.3l0,0.3h5.5H11V59
		V17.6l25.5,133.8l0.1,0.3h10.2L72.4,18.4v133.4h0.4h4.4h5.5l0-149.6H66.1z"/>
	<path d="M152,151.7h11.6L136.6,1.5l0-0.3h-14.9L94.4,151.3l-0.1,0.4h11.6l7.8-45.4h30.7l7.6,45.1L152,151.7z M115.5,96l12.2-69.9
		c0.2-1.1,0.4-2.2,0.5-3.2c0.2-1.2,0.3-2.4,0.6-3.5c0.1-1,0.2-2,0.3-3c0-0.2,0-0.4,0.1-0.6c0.2,1.5,0.4,3,0.6,4.5
		c0.4,3.2,0.8,5.9,1.1,7.1L142.4,96H115.5z"/>
	<rect x="175.4" y="2.1" width="11.4" height="149.6"/>
	<path d="M241.6,74.8c-22.7-23.2-25.2-29.3-25.2-43.2c0-15.4,5.3-22,17.6-22c17.2,0,17.2,13.6,17.2,22.7v13.6H262V34.7
		C262,20.9,262,0,233.8,0c-25.4,0-28.4,19-28.4,33.2c0,21,9.3,30.3,26,47.1c17.3,17,21.6,23.2,21.6,39.9c0,17-5.5,23.9-18.9,23.9
		c-5.3,0-12.6-1.2-17-6.8c-4.4-5.6-4.4-11.7-4.4-22.8v-12.1h-11v21.2c0,19.4,11.5,30.5,31.6,30.5c27.2,0,30.7-19.1,30.7-35.8
		C264.1,97.9,257,90.6,241.6,74.8z"/>
	<path d="M307.6,153.6c16.1,0,23.4-8.5,25.8-12.2c4.4-6.6,4.9-14.9,4.9-20.6V38.7c0-9,0-19.3-5.3-27.2c-4.8-7.2-13.5-11.1-24.3-11.1
		c-8.1,0-19.1,2-25.8,11.7c-3.7,5.3-5.3,12.5-5.3,23.4v84C277.5,128.9,277.5,153.6,307.6,153.6z M288.1,33.5c0-3,0-12.1,6-17.9
		c3.3-3.3,8.3-5.2,13.9-5.2c5.3,0,10.5,1.9,13.7,5.2c6,6.2,6,18.8,6,28.9V117c0,9-0.8,19.1-10,24.2c-2.7,1.6-6,2.5-9.7,2.5
		c-4.5,0-8.7-1.2-12-3.5c-6-4.4-7.9-10.2-7.9-24.6V33.5z"/>
	<polygon points="416.8,2.1 411.6,2.1 406.4,2.1 406.4,2.1 406.4,3.2 406.4,136.7 372.8,2.1 357.5,2.1 357.5,151.7 362.6,151.7 
		367.4,151.7 367.4,151.7 367.4,151.2 367.4,16.8 400.7,151.5 400.8,151.7 406.4,151.7 411.6,151.7 416.8,151.7 	"/>
	<path d="M465,154c27.2,0,30.7-19.1,30.7-35.8c0-20.4-7-27.6-22.5-43.5C450.5,51.6,448,45.5,448,31.6c0-15.4,5.3-22,17.6-22
		c17.2,0,17.2,13.6,17.2,22.7v13.6h10.8V34.7c0-13.8,0-34.7-28.2-34.7C439.9,0,437,19,437,33.2c0,21,9.3,30.3,26,47.1
		c17.3,17,21.6,23.2,21.6,39.9c0,17-5.5,23.9-18.9,23.9c-5.3,0-12.6-1.2-17-6.8c-4.4-5.6-4.4-11.7-4.4-22.8v-12.1h-11v21.2
		C433.4,142.9,444.9,154,465,154z"/>
	<polygon points="8.5,219.1 28.3,219.1 28.3,211 8.5,211 8.5,188.1 31.1,188.1 31.1,180.1 0,180.1 0,255.2 31.9,255.2 31.9,247.2 
		8.5,247.2 	"/>
	<polygon points="37.8,188.1 51.4,188.1 51.4,255.2 59.8,255.2 59.8,188.1 73.5,188.1 73.5,180.1 37.8,180.1 	"/>
	<path d="M139.4,255.2l-15.8-75.1H115l-15.4,75.1h8.8l2.4-14.6h17.1l2.5,14.6H139.4z M112.3,232.9l0-0.3l6.8-40.1l7.3,40.4H112.3z"
		/>
	<polygon points="196.3,180 183.6,180 173.5,248.8 163.3,180 150.7,180 150.7,255.2 155.8,255.2 158.4,255.2 158.4,193.2 
		168.2,255.2 179.1,255.2 189,191.9 189,255.2 191.6,255.2 196.3,255.2 	"/>
	<path d="M247.4,232.3c0-6.5-1.6-17.4-12.5-17.4v-0.5c7.3,0,11.4-6,11.4-16.8c0-7.3-2.2-12.4-6.4-15.1c-3.7-2.4-8.7-2.4-14.9-2.4
		h-12.9v75.1h12.1c9.1,0,14.1,0,18.6-5C246.7,245.9,247.4,240.6,247.4,232.3z M220.6,188.1h5.3c6.8,0,12.1,0,12.1,11.4
		c0,11.7-5.9,11.7-11.1,11.7h-6.3V188.1z M225.9,247.5h-5.3v-28.7h5.1c9,0,13.3,0.7,13.3,16.1C239,247.5,232.9,247.5,225.9,247.5z"
		/>
	<rect x="259.2" y="180.1" width="8.4" height="75.1"/>
	<path d="M288.6,240.6h17.1l2.5,14.6h8.9l-15.8-75.1h-8.6l-15.4,75.1h8.8L288.6,240.6z M290.1,232.7l6.8-40.1l7.3,40.4h-14.2
		L290.1,232.7z"/>
	<polygon points="360.5,180 355.6,180 353,180 353,242.5 339.3,180 328.1,180 328.1,255.2 333.1,255.2 335.7,255.2 335.7,193.5 
		349,255.2 360.5,255.2 	"/>
	<path d="M400.7,241.4l0,0.2c-0.4,1.8-1.5,7.1-7.8,7.1c-4.7,0-7.5-2.4-8.5-7.1l0-0.2c-0.4-3.1-0.6-18.7-0.6-22.9
		c0-5.6,0-17.2,0.6-22.7l0-0.1c0.3-2.8,1-9.4,8.8-9.4c7.6,0,7.6,6.7,7.6,11.6v5.4h7.9c0.1-5.6,0.1-10.1-0.7-13.7
		c-1.8-7.9-8.8-10.7-14.8-10.7c-14.4,0-16.3,10.5-16.9,13.9l0,0.1c-0.5,3.2-0.8,5.3-0.8,25.5c0,19.2,0.4,22.2,0.7,24.1
		c0.8,5.1,4,13.6,16.3,13.6c13.5,0,15.3-8.6,15.9-11.8c0.6-2.8,0.7-5.3,0.7-15.5h-7.9C401.1,237.9,401.1,239.5,400.7,241.4z"/>
	<polygon points="451.6,247.2 428.2,247.2 428.2,219.1 448,219.1 448,211 428.2,211 428.2,188.1 450.8,188.1 450.8,180.1 
		419.7,180.1 419.7,255.2 451.6,255.2 	"/>
	<path d="M476.2,209.4c-5-5.6-7.1-7.9-7.1-13.7c0-6.1,2.6-9.2,7.7-9.2c5.9,0,7.3,3.9,7.6,6.3c0.2,1.2,0.2,2,0.3,7.1l0.1,2h7.4
		c0-10.8,0-13.4-2-16.9c-2.4-4-6.7-6.1-12.9-6.1c-16.4,0-16.4,13.1-16.4,17.4c0,6.5,1.3,11.2,8.2,18.7l9.8,10.5
		c4.1,4.5,6.7,7.5,6.7,13.5c0,8.9-7.1,9.6-9.3,9.6c-7.3,0-8.7-5.8-8.9-9.2c-0.1-1.4-0.1-2.2-0.1-10h-8.1v8.1
		c0,4.5,0.6,10.9,5.5,14.9c1.2,1.1,4.9,3.7,11.9,3.7c5.2,0,17.2-1.7,17.2-17.9c0-8.6-2.6-12.4-8.5-19L476.2,209.4z"/>
</g>
</svg>
